<svg id="air-conditioner-svgrepo-com" xmlns="http://www.w3.org/2000/svg" width="22.095" height="16" viewBox="0 0 22.095 16">
  <g id="Group_8" data-name="Group 8">
    <g id="Group_7" data-name="Group 7">
      <path id="Path_14" data-name="Path 14" d="M20.189,28.527H1.907A1.91,1.91,0,0,0,0,30.436v5.326A1.91,1.91,0,0,0,1.907,37.67H20.189A1.91,1.91,0,0,0,22.1,35.762V30.436A1.91,1.91,0,0,0,20.189,28.527Zm1.145,7.235a1.147,1.147,0,0,1-1.145,1.147H1.907A1.147,1.147,0,0,1,.762,35.762V30.436a1.147,1.147,0,0,1,1.145-1.147H20.189a1.147,1.147,0,0,1,1.145,1.147Z" transform="translate(0 -28.527)" fill="#fff"/>
      <path id="Path_15" data-name="Path 15" d="M119.329,130.006a.381.381,0,0,0-.539,0l-.65.65h-.293a1.141,1.141,0,0,0-.692-.692v-.293l.65-.65a.381.381,0,0,0-.539-.539l-.493.493-.493-.493a.381.381,0,0,0-.539.539l.65.65v.293a1.141,1.141,0,0,0-.692.692h-.293l-.65-.65a.381.381,0,1,0-.539.539l.493.493-.493.493a.381.381,0,1,0,.539.539l.65-.65h.293a1.141,1.141,0,0,0,.692.692v.293l-.65.65a.381.381,0,1,0,.539.539l.493-.493.493.493a.381.381,0,0,0,.539-.539l-.65-.65v-.293a1.141,1.141,0,0,0,.692-.692h.293l.65.65a.381.381,0,0,0,.539-.539l-.493-.493.493-.493A.38.38,0,0,0,119.329,130.006Zm-2.555,1.412a.381.381,0,1,1,.381-.381A.381.381,0,0,1,116.774,131.418Z" transform="translate(-101.916 -117.703)" fill="#fff"/>
      <path id="Path_16" data-name="Path 16" d="M44.447,130.006a.381.381,0,0,0-.539,0l-.65.65h-.293a1.141,1.141,0,0,0-.692-.692v-.293l.65-.65a.381.381,0,1,0-.539-.539l-.493.493-.493-.493a.381.381,0,0,0-.539.539l.65.65v.293a1.141,1.141,0,0,0-.692.692h-.293l-.65-.65a.381.381,0,1,0-.539.539l.493.493-.493.493a.381.381,0,1,0,.539.539l.65-.65h.293a1.141,1.141,0,0,0,.692.692v.293l-.65.65a.381.381,0,1,0,.539.539l.493-.493.493.493a.381.381,0,0,0,.539-.539l-.65-.65v-.293a1.141,1.141,0,0,0,.692-.692h.293l.65.65a.381.381,0,0,0,.539-.539l-.493-.493.493-.493A.38.38,0,0,0,44.447,130.006Zm-2.555,1.412a.381.381,0,1,1,.381-.381A.381.381,0,0,1,41.892,131.418Z" transform="translate(-35.035 -117.703)" fill="#fff"/>
      <rect id="Rectangle_12" data-name="Rectangle 12" width="14.101" height="0.762" transform="translate(3.81 6.476)" fill="#fff"/>
      <rect id="Rectangle_13" data-name="Rectangle 13" width="17.524" height="0.762" transform="translate(2.286 5.333)" fill="#fff"/>
    </g>
  </g>
</svg>
