<svg xmlns="http://www.w3.org/2000/svg" width="15.787" height="15.787" viewBox="0 0 15.787 15.787">
  <path id="arrow-up-right-from-square-solid" d="M9.021,33.128A1.127,1.127,0,0,1,10.149,32h4.479a1.154,1.154,0,0,1,.462.086,1.624,1.624,0,0,1,.366.242s0,0,0,0a1.271,1.271,0,0,1,.328.791v4.514a1.128,1.128,0,0,1-2.255,0V35.852l-5.97,5.966A1.126,1.126,0,0,1,5.97,40.225l5.966-5.97H10.149a1.127,1.127,0,0,1-1.128-1.128ZM0,35.383a2.255,2.255,0,0,1,2.255-2.255H5.638a1.128,1.128,0,0,1,0,2.255H2.255V45.532H12.4V42.149a1.128,1.128,0,0,1,2.255,0v3.383A2.257,2.257,0,0,1,12.4,47.787H2.255A2.256,2.256,0,0,1,0,45.532Z" transform="translate(0 -32)" fill="#fff"/>
</svg>
