<svg xmlns="http://www.w3.org/2000/svg" xmlns:xlink="http://www.w3.org/1999/xlink" width="98.962" height="94.775" viewBox="0 0 98.962 94.775">
  <defs>
    <filter id="Path_81" x="0" y="0" width="98.962" height="94.775" filterUnits="userSpaceOnUse">
      <feOffset dy="3" input="SourceAlpha"/>
      <feGaussianBlur stdDeviation="3" result="blur"/>
      <feFlood flood-opacity="0.161"/>
      <feComposite operator="in" in2="blur"/>
      <feComposite in="SourceGraphic"/>
    </filter>
  </defs>
  <g id="chat-svgrepo-com_1_" data-name="chat-svgrepo-com (1)" transform="translate(9 6)">
    <g transform="matrix(1, 0, 0, 1, -9, -6)" filter="url(#Path_81)">
      <path id="Path_81-2" data-name="Path 81" d="M40.481,1.5C18.124,1.5,0,17.75,0,37.793A33.516,33.516,0,0,0,6.695,57.78C6.139,64.4,4.542,73.732,0,78.275c0,0,13.879-1.947,23.279-7.624l.031.013c3.858-2.514,7.722-5.1,8.522-5.759a1.4,1.4,0,0,1,1.857-.387,1.42,1.42,0,0,1,.683,1.184c.014.868-.007,1.094-7.8,6.171a44.549,44.549,0,0,0,13.906,2.215c22.357,0,40.481-16.25,40.481-36.293S62.838,1.5,40.481,1.5Z" transform="translate(9 4.5)" fill="#4dc95b"/>
    </g>
    <circle id="Ellipse_9" data-name="Ellipse 9" cx="4.217" cy="4.217" r="4.217" transform="translate(55.662 32.048)" fill="#fff"/>
    <circle id="Ellipse_10" data-name="Ellipse 10" cx="4.217" cy="4.217" r="4.217" transform="translate(36.264 32.048)" fill="#fff"/>
    <circle id="Ellipse_11" data-name="Ellipse 11" cx="4.217" cy="4.217" r="4.217" transform="translate(16.867 32.048)" fill="#fff"/>
  </g>
</svg>
