<svg id="karaoke-svgrepo-com" xmlns="http://www.w3.org/2000/svg" width="18.584" height="16" viewBox="0 0 18.584 16">
  <circle id="Ellipse_2" data-name="Ellipse 2" cx="0.297" cy="0.297" r="0.297" transform="translate(16.54 3.997)" fill="#fff"/>
  <circle id="Ellipse_3" data-name="Ellipse 3" cx="0.297" cy="0.297" r="0.297" transform="translate(16.54 2.32)" fill="#fff"/>
  <path id="Path_17" data-name="Path 17" d="M17.649,39.05a3.856,3.856,0,0,0-5.437-5.438l-.079-.078a.3.3,0,1,0-.416.423l.078.076a3.826,3.826,0,0,0-.92,2.5q0,.179.016.355l-8.23,9.2a.3.3,0,0,0,.011.407l.839.839-.169.169a1.61,1.61,0,1,1-2.277-2.277l5.57-5.57a2.2,2.2,0,0,0-3.116-3.116L.086,39.968l.419.419,3.432-3.432a1.61,1.61,0,0,1,2.277,2.277L.644,44.8A2.2,2.2,0,0,0,3.761,47.92l.169-.169.839.839a.3.3,0,0,0,.407.011l7.888-7.058,1.31-1.172q.176.016.355.016a3.826,3.826,0,0,0,2.5-.92l.078.078a.3.3,0,1,0,.42-.418ZM4.989,47.972l-.85-.85-.85-.85,6.563-7.335a5.453,5.453,0,0,0,2.472,2.472L4.989,47.972Zm7.816-6.993a4.853,4.853,0,0,1-2.523-2.523l.746-.834a3.868,3.868,0,0,0,2.611,2.611Zm1.923-1.184a3.262,3.262,0,0,1-2.511-5.345l.625.616a.3.3,0,1,0,.416-.423l-.623-.614a3.262,3.262,0,0,1,4.592,4.6L14.1,35.484a.3.3,0,1,0-.42.418l3.129,3.143a3.238,3.238,0,0,1-2.08.749Z" transform="translate(0 -32.677)" fill="#fff"/>
</svg>
