<svg xmlns="http://www.w3.org/2000/svg" width="70" height="70" viewBox="0 0 70 70">
  <g id="Group_784" data-name="Group 784" transform="translate(-39 -4409)">
    <g id="Ellipse_13" data-name="Ellipse 13" transform="translate(39 4409)" fill="none" stroke="#cb9e0a" stroke-width="3">
      <circle cx="35" cy="35" r="35" stroke="none"/>
      <circle cx="35" cy="35" r="33.5" fill="none"/>
    </g>
    <path id="linkedin-in-brands" d="M6.715,30.01H.5V9.981h6.22ZM3.6,7.248A3.619,3.619,0,1,1,7.2,3.612,3.632,3.632,0,0,1,3.6,7.248ZM29.994,30.01H23.788V20.26c0-2.324-.047-5.3-3.234-5.3-3.234,0-3.729,2.525-3.729,5.136V30.01H10.611V9.981h5.965v2.732h.087a6.536,6.536,0,0,1,5.885-3.234c6.295,0,7.452,4.145,7.452,9.529v11Z" transform="translate(59 4428.99)" fill="#cb9e0a"/>
  </g>
</svg>
