<svg xmlns="http://www.w3.org/2000/svg" width="20" height="24.693" viewBox="0 0 20 24.693">
  <g id="XMLID_2_" transform="translate(-35.036)">
    <g id="Group_791" data-name="Group 791" transform="translate(35.036)">
      <g id="Group_790" data-name="Group 790" transform="translate(0)">
        <path id="Path_399" data-name="Path 399" d="M45.036,0a10.011,10.011,0,0,0-10,10,9.875,9.875,0,0,0,2.156,6.2c1.827,2.3,7.138,7.771,7.363,8l.48.494.48-.494c.225-.232,5.539-5.7,7.365-8A9.872,9.872,0,0,0,55.036,10,10.011,10.011,0,0,0,45.036,0Zm6.8,15.362c-1.471,1.854-5.42,5.98-6.8,7.407-1.376-1.427-5.324-5.551-6.794-7.4A8.549,8.549,0,0,1,36.376,10,8.66,8.66,0,1,1,53.7,10,8.546,8.546,0,0,1,51.832,15.362Z" transform="translate(-35.036)" fill="#5a5a5a"/>
        <path id="Path_400" data-name="Path 400" d="M101.878,59.265a5.919,5.919,0,1,0,5.919,5.919A5.926,5.926,0,0,0,101.878,59.265Zm0,10.5a4.58,4.58,0,1,1,4.58-4.58A4.585,4.585,0,0,1,101.878,69.764Z" transform="translate(-91.878 -55.295)" fill="#5a5a5a"/>
      </g>
    </g>
  </g>
</svg>
