<svg id="parking-car-svgrepo-com" xmlns="http://www.w3.org/2000/svg" width="16" height="16" viewBox="0 0 16 16">
  <g id="Group_10" data-name="Group 10">
    <g id="Group_9" data-name="Group 9" transform="translate(0 0)">
      <path id="Path_18" data-name="Path 18" d="M10.733,166.477v-2.933a.786.786,0,0,0-.8-.8H9.8a.265.265,0,0,1-.267-.187L8.6,159.3v-.027a1.347,1.347,0,0,0-1.227-.8H2.36a1.347,1.347,0,0,0-1.227.8v.027L.2,162.557a.321.321,0,0,1-.267.187H-.2a.786.786,0,0,0-.8.8v2.933a.786.786,0,0,0,.8.8v1.333a.786.786,0,0,0,.8.8h.533a.786.786,0,0,0,.8-.8v-1.333H7.8v1.333a.786.786,0,0,0,.8.8h.533a.786.786,0,0,0,.8-.8v-1.333A.786.786,0,0,0,10.733,166.477ZM1.4,168.61a.252.252,0,0,1-.267.267H.6a.252.252,0,0,1-.267-.267v-1.333H1.4v1.333Zm8,0a.252.252,0,0,1-.267.267H8.6a.252.252,0,0,1-.267-.267v-1.333H9.4v1.333Zm.8-2.133a.252.252,0,0,1-.267.267H-.2a.252.252,0,0,1-.267-.267v-2.933a.252.252,0,0,1,.267-.267h.133a.824.824,0,0,0,.773-.587l.933-3.227a.8.8,0,0,1,.72-.453H7.373a.786.786,0,0,1,.72.453l.933,3.227a.825.825,0,0,0,.773.587h.133a.252.252,0,0,1,.267.267v2.933Z" transform="translate(1 -153.41)" fill="#fff"/>
      <path id="Path_19" data-name="Path 19" d="M42.034,326.344a1.067,1.067,0,1,0,1.067,1.067A1.07,1.07,0,0,0,42.034,326.344Zm0,1.6a.533.533,0,1,1,.533-.533A.535.535,0,0,1,42.034,327.944Z" transform="translate(-39.634 -315.944)" fill="#fff"/>
      <path id="Path_20" data-name="Path 20" d="M260.264,326.344a1.067,1.067,0,1,0,1.067,1.067A1.07,1.07,0,0,0,260.264,326.344Zm0,1.6a.533.533,0,1,1,.533-.533A.535.535,0,0,1,260.264,327.944Z" transform="translate(-250.93 -315.944)" fill="#fff"/>
      <path id="Path_21" data-name="Path 21" d="M159.809,368.311h-1.067a.267.267,0,1,0,0,.533h1.067a.267.267,0,1,0,0-.533Z" transform="translate(-153.409 -356.578)" fill="#fff"/>
      <path id="Path_22" data-name="Path 22" d="M144.088,334.738h-2.133a.267.267,0,1,0,0,.533h2.133a.267.267,0,1,0,0-.533Z" transform="translate(-137.155 -324.071)" fill="#fff"/>
      <path id="Path_23" data-name="Path 23" d="M86.825,195.249h5.147a.557.557,0,0,0,.427-.213.517.517,0,0,0,.08-.48l-.64-2.133a.52.52,0,0,0-.507-.373H87.465a.512.512,0,0,0-.507.373l-.64,2.133a.517.517,0,0,0,.08.48A.557.557,0,0,0,86.825,195.249Zm.64-2.667h3.867l.64,2.133H86.825Z" transform="translate(-83.518 -185.916)" fill="#fff"/>
      <path id="Path_24" data-name="Path 24" d="M347.932-1H343.4a.252.252,0,0,0-.267.267V3.8a.252.252,0,0,0,.267.267h1.867v8.267h-.533a.252.252,0,0,0-.267.267v.8h-.533a.252.252,0,0,0-.267.267v1.067a.252.252,0,0,0,.267.267h3.2a.252.252,0,0,0,.267-.267V13.667a.252.252,0,0,0-.267-.267H346.6v-.8a.252.252,0,0,0-.267-.267H345.8V4.067h2.133A.252.252,0,0,0,348.2,3.8V-.733A.252.252,0,0,0,347.932-1Zm-1.067,15.467H344.2v-.533h2.667v.533Zm-.8-1.067H345v-.533h1.067Zm1.6-9.867h-4v-4h4Z" transform="translate(-332.199 1)" fill="#fff"/>
      <path id="Path_25" data-name="Path 25" d="M402.152,35.506a.252.252,0,0,0,.267-.267v-.533h.267a1.067,1.067,0,0,0,0-2.133h-.533a.252.252,0,0,0-.267.267v2.4A.252.252,0,0,0,402.152,35.506Zm1.067-1.867a.535.535,0,0,1-.533.533h-.267V33.106h.267A.535.535,0,0,1,403.218,33.64Z" transform="translate(-389.085 -31.506)" fill="#fff"/>
    </g>
  </g>
</svg>
