<svg xmlns="http://www.w3.org/2000/svg" width="20" height="19.955" viewBox="0 0 20 19.955">
  <g id="phone-call-svgrepo-com" transform="translate(0 -0.229)">
    <g id="Group_792" data-name="Group 792" transform="translate(0 0.229)">
      <path id="Path_401" data-name="Path 401" d="M19.551,16.012l-3.089-3.089a1.611,1.611,0,0,0-2.271.043l-1.556,1.556-.307-.171a15.486,15.486,0,0,1-3.743-2.707,15.568,15.568,0,0,1-2.712-3.75c-.058-.1-.113-.2-.167-.3L6.751,6.551l.513-.514a1.608,1.608,0,0,0,.041-2.271L4.217.677A1.609,1.609,0,0,0,1.946.72L1.076,1.6l.024.024A5.027,5.027,0,0,0,.382,2.884,5.244,5.244,0,0,0,.063,4.168C-.345,7.549,1.2,10.639,5.393,14.832c5.8,5.8,10.467,5.358,10.668,5.336a5.21,5.21,0,0,0,1.287-.323,5.017,5.017,0,0,0,1.261-.714l.019.017.882-.864A1.612,1.612,0,0,0,19.551,16.012ZM18.824,17.6l-.389.388-.155.149A3.884,3.884,0,0,1,17,18.942a4.3,4.3,0,0,1-1.045.263c-.044,0-4.437.379-9.875-5.058C1.455,9.524.715,6.86,1.025,4.28a4.271,4.271,0,0,1,.262-1.046,3.936,3.936,0,0,1,.808-1.285l.537-.543a.639.639,0,0,1,.9-.043L6.62,4.452a.641.641,0,0,1-.042.9L4.493,7.437l.193.324c.107.181.22.383.341.6A16.366,16.366,0,0,0,7.9,12.33a16.362,16.362,0,0,0,3.958,2.87c.223.123.426.237.609.346l.325.193,2.084-2.085a.643.643,0,0,1,.9-.042L18.866,16.7A.64.64,0,0,1,18.824,17.6Z" transform="translate(0 -0.229)" fill="#5a5a5a"/>
    </g>
  </g>
</svg>
