<svg id="projector-svgrepo-com" xmlns="http://www.w3.org/2000/svg" width="32.79" height="16" viewBox="0 0 32.79 16">
  <g id="Group_6" data-name="Group 6">
    <g id="Group_5" data-name="Group 5" transform="translate(0 0)">
      <path id="Path_5" data-name="Path 5" d="M30.341,87.127h-4v-.939a.49.49,0,0,0-.49-.49H23.4a.49.49,0,0,0-.49.49v.939H22v-.939a.49.49,0,0,0-.49-.49H19.064a.49.49,0,0,0-.49.49v.939H2.449A2.452,2.452,0,0,0,0,89.576v7.652a2.453,2.453,0,0,0,1.959,2.4v1.581a.49.49,0,0,0,.49.49H8.362a.49.49,0,0,0,.49-.49V99.676H23.938v1.532a.49.49,0,0,0,.49.49h5.913a.49.49,0,0,0,.49-.49V99.627a2.453,2.453,0,0,0,1.959-2.4V89.576A2.452,2.452,0,0,0,30.341,87.127Zm-6.452-.449h1.469v.449H23.889v-.449Zm-4.335,0h1.469v.449H19.554ZM7.872,100.718H2.939V99.676H7.872v1.042Zm21.979,0H24.917V99.676h4.934Zm.49-2.022H2.449A1.471,1.471,0,0,1,.98,97.227V89.576a1.471,1.471,0,0,1,1.469-1.469H30.341a1.471,1.471,0,0,1,1.469,1.469v7.652h0A1.471,1.471,0,0,1,30.341,98.7Z" transform="translate(0 -85.698)" fill="#fff"/>
      <path id="Path_6" data-name="Path 6" d="M221.92,117.84a4.555,4.555,0,1,0,4.555,4.555A4.56,4.56,0,0,0,221.92,117.84Zm0,8.131A3.576,3.576,0,1,1,225.5,122.4,3.58,3.58,0,0,1,221.92,125.971Z" transform="translate(-196.072 -114.691)" fill="#fff"/>
      <path id="Path_7" data-name="Path 7" d="M237.932,135.591a2.816,2.816,0,1,0,2.816,2.816A2.819,2.819,0,0,0,237.932,135.591Zm0,4.653a1.837,1.837,0,1,1,1.837-1.837A1.839,1.839,0,0,1,237.932,140.244Z" transform="translate(-212.084 -130.704)" fill="#fff"/>
      <path id="Path_8" data-name="Path 8" d="M32.949,140.09H27.855a.49.49,0,1,0,0,.98h5.094a.49.49,0,1,0,0-.98Z" transform="translate(-24.684 -134.762)" fill="#fff"/>
      <path id="Path_9" data-name="Path 9" d="M97.161,140.09H95.855a.49.49,0,1,0,0,.98h1.306a.49.49,0,1,0,0-.98Z" transform="translate(-86.023 -134.762)" fill="#fff"/>
      <path id="Path_10" data-name="Path 10" d="M32.949,159.34H27.855a.49.49,0,1,0,0,.98h5.094a.49.49,0,1,0,0-.98Z" transform="translate(-24.684 -152.126)" fill="#fff"/>
      <path id="Path_11" data-name="Path 11" d="M97.161,159.34H95.855a.49.49,0,1,0,0,.98h1.306a.49.49,0,1,0,0-.98Z" transform="translate(-86.023 -152.126)" fill="#fff"/>
      <path id="Path_12" data-name="Path 12" d="M32.949,178.59H27.855a.49.49,0,1,0,0,.98h5.094a.49.49,0,0,0,0-.98Z" transform="translate(-24.684 -169.49)" fill="#fff"/>
      <path id="Path_13" data-name="Path 13" d="M97.161,178.59H95.855a.49.49,0,1,0,0,.98h1.306a.49.49,0,1,0,0-.98Z" transform="translate(-86.023 -169.49)" fill="#fff"/>
    </g>
  </g>
</svg>
