<svg xmlns="http://www.w3.org/2000/svg" width="70" height="70" viewBox="0 0 70 70">
  <g id="Group_786" data-name="Group 786" transform="translate(-39 -4409)">
    <g id="Ellipse_13" data-name="Ellipse 13" transform="translate(39 4409)" fill="none" stroke="#cb9e0a" stroke-width="3">
      <circle cx="35" cy="35" r="35" stroke="none"/>
      <circle cx="35" cy="35" r="33.5" fill="none"/>
    </g>
    <path id="twitter-brands" d="M26.916,54.154c.019.266.019.533.019.8,0,8.128-6.187,17.494-17.494,17.494A17.375,17.375,0,0,1,0,69.687a12.72,12.72,0,0,0,1.485.076,12.314,12.314,0,0,0,7.633-2.627,6.159,6.159,0,0,1-5.749-4.264,7.754,7.754,0,0,0,1.161.1,6.5,6.5,0,0,0,1.618-.209,6.149,6.149,0,0,1-4.93-6.034v-.076A6.192,6.192,0,0,0,4,57.428a6.158,6.158,0,0,1-1.9-8.223,17.477,17.477,0,0,0,12.678,6.434,6.941,6.941,0,0,1-.152-1.409A6.154,6.154,0,0,1,25.26,50.024a12.105,12.105,0,0,0,3.9-1.485,6.132,6.132,0,0,1-2.7,3.388A12.326,12.326,0,0,0,30,50.975,13.217,13.217,0,0,1,26.916,54.154Z" transform="translate(59 4383.735)" fill="#cb9e0a"/>
  </g>
</svg>
