<svg xmlns="http://www.w3.org/2000/svg" width="70" height="70" viewBox="0 0 70 70">
  <g id="Group_785" data-name="Group 785" transform="translate(-39 -4409)">
    <g id="Ellipse_13" data-name="Ellipse 13" transform="translate(39 4409)" fill="none" stroke="#cb9e0a" stroke-width="3">
      <circle cx="35" cy="35" r="35" stroke="none"/>
      <circle cx="35" cy="35" r="33.5" fill="none"/>
    </g>
    <path id="youtube-brands" d="M44.306,67.3a3.77,3.77,0,0,0-2.652-2.67C39.314,64,29.933,64,29.933,64s-9.381,0-11.721.631A3.77,3.77,0,0,0,15.56,67.3a42.442,42.442,0,0,0,0,14.535,3.713,3.713,0,0,0,2.652,2.627c2.34.631,11.721.631,11.721.631s9.381,0,11.721-.631a3.713,3.713,0,0,0,2.652-2.627,42.443,42.443,0,0,0,0-14.535ZM26.865,79.029V70.108l7.841,4.461Z" transform="translate(44.067 4369.453)" fill="#cb9e0a"/>
  </g>
</svg>
